<?xml version="1.0" standalone="no"?>
<!DOCTYPE svg PUBLIC "-//W3C//DTD SVG 1.1//EN" "http://www.w3.org/Graphics/SVG/1.1/DTD/svg11.dtd">
<svg xmlns="http://www.w3.org/2000/svg">
<metadata>Copyright (C) 2017 by original authors @ fontello.com</metadata>
<defs>
<font id="fontello" horiz-adv-x="1000" >
<font-face font-family="fontello" font-weight="400" font-stretch="normal" units-per-em="1000" ascent="850" descent="-150" />
<missing-glyph horiz-adv-x="1000" />
<glyph glyph-name="assets" unicode="&#xe800;" d="M724 842h-500c-9 0-17-3-24-9l-190-188c-7-6-10-15-10-23v-740c0-18 15-32 33-32h691c18 0 32 14 32 32v928c0 18-14 32-32 32z m-533-110v-78h-79l79 78z m500-818h-626v676h159c18 0 32 14 32 32v156h435v-864z m-522 489c0-18 14-32 33-32h96c18 0 33 14 33 32s-15 32-33 32h-96c-19 0-33-14-33-32z m211-32h175c18 0 33 14 33 32s-15 32-33 32h-175c-19 0-33-14-33-32s14-32 33-32z m-178-129h201c18 0 33 15 33 32 0 18-15 33-33 33h-201c-19 0-33-15-33-33 0-17 14-32 33-32z m353 65h-71c-18 0-32-15-32-33s14-32 32-32h71c18 0 33 14 33 32s-15 33-33 33z m-270-129h-83c-19 0-33-15-33-33 0-17 14-32 33-32h83c18 0 33 15 33 32 0 18-15 33-33 33z m270 0h-189c-18 0-32-15-32-33 0-17 14-32 32-32h189c18 0 33 15 33 32 0 18-15 33-33 33z" horiz-adv-x="756" />

<glyph glyph-name="close" unicode="&#xe801;" d="M977-18l-367 368 367 368c31 30 31 79 0 109-30 31-79 31-109 0l-368-367-368 367c-30 31-79 31-109 0-31-30-31-79 0-109l367-368-367-368c-31-30-31-79 0-109 30-31 79-31 109 0l368 367 368-367c30-31 79-31 109 0 31 30 31 79 0 109z" horiz-adv-x="1000" />

<glyph glyph-name="dashboard" unicode="&#xe802;" d="M249 427h-205c-24 0-44-20-44-44v-489c0-24 20-44 44-44h205c24 0 44 20 44 44v489c0 24-20 44-44 44z m-45-489h-116v401h116v-401z m469 912h-204c-24 0-44-20-44-44v-912c0-24 20-44 44-44h204c25 0 45 20 45 44v912c0 24-20 44-45 44z m-44-912h-116v824h116v-824z m469 785h-204c-25 0-44-20-44-44v-785c0-24 19-44 44-44h204c25 0 44 20 44 44v785c0 24-19 44-44 44z m-44-785h-116v697h116v-697z" horiz-adv-x="1142" />

<glyph glyph-name="edit" unicode="&#xe803;" d="M979 590l-125 125c0 0 0 0 0 0 0 0 0 0 0 0l-124 125c-7 6-16 10-26 10s-18-4-25-10l-604-604c-5-5-8-11-9-18l-65-315c-3-12 1-24 10-32 6-7 15-11 25-11 2 0 5 0 7 1l314 65c7 1 14 4 18 9l604 604c14 14 14 37 0 51z m-857-452l156-156-196-40 40 196z m228-126l-199 198 553 553 74-74-334-334c-14-14-14-37 0-51 7-7 16-10 25-10s18 3 25 10l335 335 74-74-553-553z" horiz-adv-x="1000" />

<glyph glyph-name="feed" unicode="&#xe804;" d="M1001 702h-98l0 21c-13 73-78 129-156 129h-588c-88 0-159-70-159-156v-356c0-80 61-145 139-155v-155c0-13 8-24 19-29 4-2 8-3 13-3 8 0 16 4 22 10l93 89c29-38 75-63 127-63h375l179-176c6-6 14-9 22-9 4 0 9 0 12 2 12 5 20 16 20 29v155c78 10 139 76 139 155v356c0 86-71 156-159 156z m-747-156v-356c0-11 1-21 3-31l-55-54v110c0 17-14 31-31 31h-12c-53 0-95 42-95 94v356c0 51 42 93 95 93h588c39 0 73-23 88-57l1-30h-423c-88 0-159-70-159-156z m842-356c0-52-42-94-95-94h-12c-17 0-31-14-31-31v-110l-135 132c-6 6-14 9-22 9h-388c-52 0-95 42-95 94v356c0 52 42 94 95 94h588c53 0 95-42 95-94v-356z m-155 291h-468c-17 0-31-14-31-31s14-31 31-31h468c17 0 32 14 32 31s-15 31-32 31z m0-175h-468c-17 0-31-13-31-31s14-31 31-31h468c17 0 32 14 32 31s-15 31-32 31z" horiz-adv-x="1160" />

<glyph glyph-name="idea" unicode="&#xe805;" d="M432 738c7 0 12 5 12 11v81c0 6-5 11-12 11s-11-5-11-11v-81c0-6 5-11 11-11z m-341-299h-80c-6 0-11-5-11-12s5-11 11-11h80c6 0 11 5 11 11s-5 12-11 12z m764 0h-80c-6 0-11-5-11-12s5-11 11-11h80c6 0 11 5 11 11s-5 12-11 12z m-662 208c3 0 5 1 8 3 4 4 4 11 0 16l-57 57c-4 4-11 4-16 0s-4-12 0-16l57-57c2-2 5-3 8-3z m526 86l-57-57c-4-4-4-12 0-16 2-2 5-3 8-3 3 0 5 1 8 3l56 57c5 4 5 11 0 16s-11 4-15 0z m-139-251l-6 9c-8 14-23 22-39 22-4 0-9-1-14-2-11 9-24 16-37 22-2 8-6 16-13 23-8 8-20 13-31 13h-11c-12 0-23-5-31-13-7-7-11-15-13-23-13-6-26-13-37-22-5 1-10 2-15 2-16 0-31-8-39-22l-5-9c-6-11-7-23-4-34 2-9 7-17 13-23-1-7-1-14-1-21 0-8 0-15 1-22-6-6-11-14-13-23-3-11-2-23 4-33l5-10c8-14 23-22 39-22 5 0 10 1 15 2 11-9 24-16 37-22 2-8 6-16 13-23 8-8 19-13 31-13h11c11 0 23 5 31 13 7 7 11 15 13 23 13 6 26 13 37 22 5-1 10-2 14-2 16 0 31 8 39 22l6 10c6 10 7 22 4 33-2 9-7 17-13 23 1 7 1 14 1 22 0 7 0 14-1 21 6 6 11 14 13 23 3 11 2 23-4 34z m-32-54c1-8 2-16 2-24 0-9-1-17-2-25-1-4 1-9 5-11 10-7 14-21 7-31l-5-9c-4-7-11-12-20-12-3 0-7 1-10 3-5 2-10 2-13-2-12-11-26-19-42-24-4-1-7-5-8-10 0-12-10-22-22-22h-11c-12 0-22 10-23 22 0 5-3 9-7 10-16 5-30 13-42 24-2 2-5 3-7 3-2 0-4 0-6-1-3-2-7-3-11-3-8 0-15 5-19 12l-6 9c-6 10-2 24 8 31 4 2 6 7 5 11-1 8-2 16-2 25 0 8 1 16 2 24 1 4-1 9-5 12-10 6-14 20-7 30l5 9c4 7 11 12 19 12 4 0 8-1 11-3 4-2 10-2 13 2 12 11 26 19 42 24 4 1 7 5 7 10 1 13 11 22 23 22h11c12 0 22-9 22-22 1-5 4-9 8-10 16-5 30-13 42-24 3-4 9-4 13-2 3 2 7 3 10 3 9 0 16-5 20-12l5-9c7-10 3-24-7-30-4-3-6-8-5-12z m-114 74c-54 0-98-44-98-98 0-55 44-99 98-99 54 0 98 44 98 99 0 54-44 98-98 98z m0-174c-41 0-75 34-75 76 0 41 34 75 75 75s76-34 76-75c0-42-34-76-76-76z m0 368c-161 0-292-132-292-294 0-113 65-217 168-265v-106h-6c-7 0-12-5-12-12s5-11 12-11h6v-29h-6c-7 0-12-5-12-11 0-7 5-12 12-12h6v-36c0-12 9-22 21-22h17c19-30 51-48 86-48 36 0 68 18 86 48h18c12 0 21 10 21 22v36h6c6 0 11 5 11 12 0 6-5 11-11 11h-6v29h6c6 0 11 5 11 11s-5 12-11 12h-6v106c102 48 168 152 168 265 0 162-131 294-293 294z m0-824c-22 0-43 10-58 26h117c-15-16-36-26-59-26z m103 49h-205v35h205v-35z m0 58h-205v29h205v-29z m0 52h-205v29h205v-29z m7 123c-4-1-7-5-7-10v-62h-205v62c0 5-3 9-7 10-98 44-161 141-161 248 0 150 121 272 270 272s271-122 271-272c0-107-63-204-161-248z" horiz-adv-x="866" />

<glyph glyph-name="like" unicode="&#xe806;" d="M531-150c-10 0-19 4-26 11l-425 462c0 0 0 0 0 0-52 57-80 134-80 215s28 157 80 214l6 7c53 59 123 91 198 91s145-32 197-91l50-56 51 56c52 59 122 91 197 91s145-32 197-91l7-7c51-57 80-134 80-214s-29-158-80-215c0 0 0 0 0 0l-425-462c-7-7-17-11-27-11z m-398 522l398-433 399 433c82 91 82 240-1 332l-6 7c-39 43-90 67-144 67-54 0-105-24-144-67l-77-86c-7-8-16-12-27-12-10 0-19 4-26 12l-77 86c-39 43-90 67-144 67s-106-24-144-67l-7-7c-82-92-82-241 0-332z" horiz-adv-x="1063" />

<glyph glyph-name="liked" unicode="&#xe807;" d="M540-150c-10 0-19 4-26 11l-425 462c0 0 0 0 0 0-52 57-80 134-80 215s28 157 80 214l6 7c53 59 123 91 198 91 74 0 145-32 197-91l50-56 51 56c52 59 122 91 197 91 75 0 145-32 197-91l7-7c51-57 80-134 80-214s-29-158-80-215c0 0 0 0-1 0l-424-462c-7-7-17-11-27-11z m392 861" horiz-adv-x="1081" />

<glyph glyph-name="milestones" unicode="&#xe808;" d="M1041 671h0c-70 0-129-59-129-128 0-69 59-127 129-128 33 0 66 14 90 38 25 25 38 58 38 91 0 70-58 127-128 127z m45-173c-12-13-29-20-46-20-35 0-65 30-65 65 0 35 31 65 66 65l0 31v-31c35 0 65-29 65-64 0-17-7-34-20-46z m179 257c-78 79-196 113-304 86-88-23-167-91-205-177-37-82-33-173 11-256 44-82 98-163 165-248 18-23 37-46 56-69l28-34c6-7 15-11 25-11 0 0 0 0 0 0 9 0 18 4 24 11l28 35c20 23 39 46 58 70 61 77 124 163 168 260 15 32 31 71 32 115 2 81-28 159-86 218z m-3-307c-42-91-102-173-161-248-18-23-37-45-56-69l-5-5c-1 2-2 4-3 5-19 23-38 45-55 67-65 83-117 161-159 239-45 85-30 157-10 202 31 69 94 123 164 141 20 5 41 8 62 8 67 0 133-28 181-77 45-47 70-108 68-172-1-33-14-65-26-91z m-842-18c2 20-12 36-34 39-26 3-51 5-77 8 0 0 0-1 0-1-1 0-2 0-3 0-27 1-42-10-44-31-1-22 12-35 39-38 25-2 50-4 75-7 23-3 41 9 44 30z m53-146c-31-7-61-16-91-25-17-5-26-21-23-39 3-16 18-28 36-30 34 10 69 19 102 31 16 6 20 26 14 41-6 17-21 26-38 22z m-16-349c-29 5-59 8-88 12-21 2-37-11-39-30-3-19 8-35 29-39 30-4 60-8 85-11 24-1 40 11 42 29 3 20-9 36-29 39z m-220 37c-25 6-49 14-74 21-5 1-11 2-13 3-19-1-33-12-36-28-3-17 5-33 23-39 27-9 55-17 83-25 24-6 41 4 47 24 5 20-7 37-30 44z m363 368c-8 45-37 73-77 92-5 2-14 2-20 0-14-3-23-13-25-28-2-15 4-27 17-35 19-11 34-23 38-46 3-16 17-23 29-24 26 0 42 19 38 41z m-340-108c-33-7-65-15-97-25-16-5-23-23-19-40 3-15 18-26 39-26 30 9 64 17 98 28 15 5 21 24 16 39-5 16-20 28-37 24z m413-313c-28 2-55 4-82 5-24 1-39-11-41-31-2-21 12-37 36-39 23-1 45-2 68-4v0c5 0 9 0 14 0 23 0 39 13 40 33 1 19-13 34-35 36z m228-9c-33 2-66 3-100 2-19-1-31-17-30-35 1-19 15-32 35-33 15 0 30 0 45 0v-2c15 0 30-1 45 0 19 1 32 15 34 33 1 16-12 34-29 35z m-867 228c-20-22-31-47-34-77 4-13 6-27 11-40 8-17 26-24 43-18 17 6 28 23 22 41-6 19-2 34 11 48 13 16 11 37-3 49-14 13-36 12-50-3z m1045-227c-8 0-17 0-25 0 0 0 0 0 0 0-9 0-18 0-27 0-18-2-32-17-32-35 0-18 13-33 31-35 18-1 36-1 53 0 19 2 32 17 32 35 1 18-13 33-32 35z m-911 500c18 1 31 17 30 35 0 18-14 32-32 33-9 1-17 0-26 0 0 0 0 0 0 0-9 0-17 1-26 0-18-1-32-16-32-33 0-18 13-34 31-35 18-1 37-1 55 0z" horiz-adv-x="1351" />

<glyph glyph-name="postnew" unicode="&#xe809;" d="M943 408h-385v385c0 31-26 57-58 57s-57-26-57-57v-385h-385c-32 0-58-26-58-58s26-57 58-57h385v-386c0-31 25-57 57-57s57 26 57 57v386h386c31 0 57 25 57 57s-26 58-57 58z" horiz-adv-x="1000" />

<glyph glyph-name="question" unicode="&#xe80a;" d="M512 600c-34 0-67-15-90-40-5-6-4-14 1-19 6-5 14-5 19 1 18 20 44 31 70 31 53 0 95-42 95-94 0-53-42-95-95-95-7 0-13-6-13-14v-111c0-8 6-14 13-14 8 0 14 6 14 14v99c61 6 108 58 108 121 0 66-55 121-122 121z m-2-398c-21 0-39-18-39-40 0-22 18-39 39-39 22 0 40 17 40 39 0 22-18 40-40 40z m0-52c-6 0-12 5-12 12 0 7 6 13 12 13s13-6 13-13c0-7-6-12-13-12z m6 700c-276 0-500-224-500-500 0-97 28-191 80-272-9-25-52-137-79-208-2-5-1-11 3-14 4-4 9-5 14-3 31 11 172 64 207 79 82-54 177-82 275-82 275 0 499 224 499 500 0 276-224 500-499 500z m0-973c-96 0-187 28-266 81-2 2-5 2-7 2-2 0-4 0-6-1-8-4-106-41-184-71 73 188 72 190 71 196 0 1-1 2-2 4-52 78-79 168-79 262 0 261 212 473 473 473s472-212 472-473c0-261-212-473-472-473z" horiz-adv-x="1027" />

<glyph glyph-name="search" unicode="&#xe80b;" d="M106 740c68 71 159 110 255 110l0 0c96 0 187-39 255-110 68-71 106-166 106-266 0-69-18-134-51-192l263-273c17-18 26-40 26-65s-9-47-26-64l-3-3c-17-18-39-27-62-27s-45 9-61 27l-263 273c-55-34-118-52-184-52-96 0-187 39-255 110s-106 166-106 266 38 195 106 266z m746-818c4-4 10-7 17-7 7 0 13 3 18 7l3 4c5 5 7 11 7 18s-2 14-7 19l-255 266c-6-7-12-14-19-21-6-7-13-13-20-19l256-267z m-702 332c56-59 131-91 211-91 80 0 155 32 211 91s87 137 87 220-31 161-87 220-131 91-211 91c-80 0-155-32-211-91-57-59-88-137-88-220 0-83 31-161 88-220z" horiz-adv-x="960" />

<glyph glyph-name="settings" unicode="&#xe80c;" d="M846 286c4 21 5 43 5 64s-1 43-5 64c20 18 34 41 40 67 9 34 4 70-13 100l-16 27c-23 41-66 67-113 67-14 0-28-3-41-7-33 27-70 49-110 64-5 26-17 50-36 69-25 24-58 38-92 38h-30c-35 0-67-14-92-38-19-19-32-43-37-69-39-15-76-37-109-64-13 4-27 7-41 7-47 0-90-26-114-67l-15-27c-17-30-22-66-13-100 6-26 20-49 39-67-3-21-4-42-4-64s1-43 4-64c-19-18-33-41-39-67-9-34-4-70 13-100l15-27c24-41 67-67 114-67 14 0 28 3 41 7 33-27 70-49 109-64 6-26 18-50 37-69 25-24 57-38 92-38h30c35 0 67 14 92 38 19 19 31 43 36 69 40 15 77 37 110 64 13-4 27-7 41-7 47 0 90 26 113 67l16 27c17 30 22 66 13 100-6 26-20 49-40 67z m-67 136c5-24 7-48 7-72s-2-48-7-72c-3-13 3-27 15-35 31-19 41-59 23-91l-16-27c-12-21-34-33-57-33-11 0-22 2-32 8-12 6-27 5-37-5-35-32-76-56-121-71-13-5-22-17-23-31-1-37-30-66-66-66h-30c-37 0-66 29-67 66 0 14-9 26-22 31-45 15-86 39-122 71-6 6-13 9-21 9-6 0-11-2-16-4-10-6-20-8-31-8-24 0-46 12-58 33l-15 27c-18 32-8 72 23 91 11 8 17 22 15 35-5 24-8 48-8 72s3 48 8 72c2 13-4 27-15 35-31 19-41 59-23 91l15 27c12 21 34 34 58 34 11 0 22-3 31-9 12-6 27-4 38 5 35 33 76 57 121 72 13 4 22 16 23 30 0 37 29 66 66 66h30c36 0 65-29 66-66 1-14 10-26 23-30 45-15 86-39 121-72 10-9 25-11 37-5 10 6 21 9 32 9 24 0 46-13 57-34l16-27c18-32 8-72-23-91-12-8-18-22-15-35z m-329 219c-157 0-285-131-285-291 0-160 128-291 285-291s285 131 285 291c0 160-128 291-285 291z m0-516c-122 0-220 101-220 225 0 124 98 225 220 225s220-101 220-225c0-124-99-225-220-225z" horiz-adv-x="900" />

<glyph glyph-name="sortarrow" unicode="&#xe80d;" d="M708 227c-19 18-50 18-69 0l-229-218v795c0 25-22 46-49 46-27 0-49-21-49-46v-795l-229 218c-9 9-22 14-34 14-13 0-25-5-35-14-19-18-19-48 0-66l312-297c19-19 50-19 69 0l313 297c19 18 19 48 0 66z" horiz-adv-x="708" />

<glyph glyph-name="successstory" unicode="&#xe80e;" d="M1082 511l-184 329c-1 1-1 2-2 3 0 0 0 0 0 0 0 0 0 0 0 0-1 1-3 2-4 2-1 1-1 1-1 1-2 0-3 1-4 1-1 0-1 0-1 0 0 0 0 0 0 0h-683c0 0 0 0 0 0 0 0 0 0 0 0-2 0-3-1-4-1-1 0-1 0-1-1-2 0-3-1-4-2 0 0 0 0 0 0 0 0 0-1 0-1-1 0-2-1-2-2l-190-332c-3-5-3-11 1-15l528-633c1-7 7-12 14-12 5 0 10 4 12 9l524 639c4 5 4 11 1 15z m-875 301l305-295h-474l169 295z m30 8h616l-308-297-308 297z m294-330v-588l-490 588h490z m27 0h483l-483-590v590z m19 27l306 295 166-295h-472z" horiz-adv-x="1084" />

<glyph glyph-name="vote" unicode="&#xe80f;" d="M505 779c27 0 54-19 63-61 29-152-43-266-43-266h156c46 0 87-36 87-82 0-45-32-82-62-82 8-12 12-27 12-42 0-35-22-64-53-76 8-13 13-28 13-45 0-40-29-73-68-80 7-12 11-26 11-41 0-46-37-83-83-83l-88 0c-261 0-212 90-351 90v339c89 0 166 5 243 125 54 84 89 138 103 252 4 32 32 52 60 52m0 71l0 0c-31 0-62-11-85-30-26-21-42-51-47-84-12-97-40-141-90-219l-2-4c-59-91-105-91-182-91-40 0-72-32-72-72v-339c0-40 32-72 72-72 37 0 49-7 73-23 22-13 51-31 96-45 48-14 107-21 182-21l88 0c86 0 156 69 156 154 0 1 0 2 0 3 35 28 56 71 56 118 0 6 0 12-1 17 5 5 9 11 13 16 19 26 28 57 28 88 0 2 0 4 0 6 30 28 50 71 50 118 0 42-17 81-48 110-30 28-70 44-111 44h-50c18 68 21 140 8 208-7 35-24 65-48 86-24 21-55 32-86 32l0 0z" horiz-adv-x="840" />

<glyph glyph-name="voted" unicode="&#xe810;" d="M491 850l0 0c-31 0-61-11-85-30-25-21-42-51-46-84-12-97-40-141-91-219l-2-4c-59-91-105-91-181-91-40 0-72-32-72-72v-339c0-40 32-72 72-72 37 0 48-7 73-22 21-14 50-32 95-46 48-14 108-21 182-21l89 0c85 0 155 69 155 154 0 1 0 2 0 3 35 28 57 71 57 118 0 6-1 12-1 17 4 5 9 11 13 16 18 26 28 57 28 88 0 2 0 4 0 6 30 28 49 71 49 118 0 42-17 81-48 110-30 28-69 44-110 44h-50c18 68 21 140 7 208-7 35-23 65-48 86-24 21-54 32-86 32l0 0z" horiz-adv-x="840" />

<glyph glyph-name="deleteconfirmation" unicode="&#xe811;" d="M1125-57l-499 865c-11 18-30 29-51 29s-40-11-50-29l-499-865c-11-19-11-41 0-59 10-19 29-30 51-30h997c21 0 40 11 51 30 10 18 10 40 0 59z m-34-40c-2-3-7-10-17-10h-997c-11 0-16 7-17 10-2 3-5 11 0 20l498 865c5 9 14 10 17 10s12-1 17-10l499-865c5-9 2-17 0-20z m-555 207h39v393h-39v-393z m0-99h39v40h-39v-40z" horiz-adv-x="1137" />

<glyph glyph-name="deletesearchcriteria" unicode="&#xe812;" d="M546 350l172 171c14 14 14 37 0 51-14 15-37 15-51 0l-172-171-171 171c-14 15-37 15-51 0-14-14-14-37 0-51l171-171-171-171c-14-14-14-37 0-51 14-14 37-14 51 0l171 171 172-171c14-14 37-14 51 0 14 14 14 37 0 51l-172 171z" horiz-adv-x="990" />

<glyph glyph-name="delete" unicode="&#xe813;" d="M783 812h-225c-5 14-19 24-35 24h-123c-17 0-30-10-36-24h-225c-57 0-103-45-103-101v-93c0-20 16-36 37-36h70v-682c0-20 17-37 37-37h562c20 0 37 17 37 37v682h70c21 0 37 16 37 36v93c0 56-46 101-103 101z m-79-876h-486v646h486v-646z m108 719h-702v56c0 15 13 28 29 28h644c16 0 29-13 29-28v-56z m-449-592c21 0 38 16 38 37v386c0 20-17 36-38 36-20 0-37-16-37-36v-386c0-21 17-37 37-37z m196 0c20 0 37 16 37 37v386c0 20-17 36-37 36-21 0-37-16-37-36v-386c0-21 16-37 37-37z" horiz-adv-x="896" />

<glyph glyph-name="ideathick" unicode="&#xe814;" d="M187 73l0 138c-114 57-187 174-187 302 0 186 151 337 337 337 185 0 336-151 336-337 0-128-72-245-186-302l0-138c11-2 19-12 19-23 0-12-8-22-19-24l0-49c0-19-16-35-36-35l-3 0c0-3-1-6-3-9-22-39-63-64-108-64-45 0-87 25-109 64-2 3-2 6-3 9l-3 0c-20 0-35 16-35 35l0 49c-11 2-20 12-20 24 0 11 9 21 20 23z m206-131l-113 0c15-16 35-25 57-25 21 0 42 9 56 25z m46 84l-205 0 0-36 205 0 0 36z m-205 76l0-29 205 0 0 29-205 0z m205 48l0 76c0 10 6 18 14 22 105 46 173 150 173 265 0 159-130 289-289 289-160 0-289-130-289-289 0-115 67-219 172-265 9-4 14-12 14-22l0-76 205 0z m-102 406c-14 0-24 10-24 23l0 77c0 13 10 24 24 24 13 0 24-11 24-24l0-77c0-13-11-23-24-23z m0-229c-14 0-24 11-24 24l0 76c0 13 10 24 24 24 13 0 24-11 24-24l0-76c0-13-11-24-24-24z m152 152l-76 0c-13 0-24 11-24 24 0 13 11 24 24 24l76 0c13 0 24-11 24-24 0-13-11-24-24-24z m-228 0l-76 0c-14 0-24 11-24 24 0 13 10 24 24 24l76 0c13 0 23-11 23-24 0-13-10-24-23-24z m183-107c-6 0-12 2-17 7l-53 53c-10 10-10 25 0 34 9 10 24 10 33 0l54-54c9-9 9-24 0-33-4-5-11-7-17-7z m-161 161c-6 0-12 3-17 7l-54 54c-9 9-9 25 0 34 10 9 25 9 34 0l54-54c9-9 9-24 0-34-5-4-11-7-17-7z m-54-161c-6 0-12 2-17 7-9 9-9 24 0 33l54 54c9 10 24 10 34 0 9-9 9-24 0-34l-54-53c-5-5-11-7-17-7z m162 161c-7 0-13 3-17 7-10 10-10 25 0 34l53 54c10 9 25 9 34 0 10-9 10-25 0-34l-54-54c-4-4-10-7-16-7z" horiz-adv-x="692" />

<glyph glyph-name="graph" unicode="&#xe815;" d="M946-60l-819 0 608 601 0-125c0-20 16-36 36-36 19 0 35 16 35 36l0 209c0 10-4 18-10 25-7 7-16 11-26 11l-208 0c-20 0-36-16-36-36 0-19 16-35 36-35l121 0-612-606 0 831c0 19-16 35-35 35-20 0-36-16-36-35l0-911c0-20 16-36 36-36 0 0 0 1 0 1l910 0c20 0 36 15 36 35 0 20-16 36-36 36z" horiz-adv-x="1000" />

<glyph glyph-name="key" unicode="&#xe816;" d="M889 747c-67 67-155 103-249 103-94 0-182-36-249-103-47-47-80-106-94-171-13-56-12-113 3-168l-289-289c-7-7-11-17-11-27l5-192c0-20 16-35 36-36l192-5c0 0 0 0 1 0 9 0 19 4 26 11l215 215 0 0 74 74c30-8 60-12 91-12l0 0c94 0 182 37 249 103 137 137 137 360 0 497z m-53-445c-52-52-122-81-196-81-31 0-61 5-90 15-13 4-28 1-38-9l-64-64-17 18c-14 14-38 14-52 0-15-15-15-38 0-53l17-17-71-71-18 17c-14 15-37 15-52 0-14-14-14-38 0-52l17-18-53-53-141 3-4 141 294 293c10 10 13 25 9 38-34 101-9 211 67 286 52 52 122 81 196 81 62 0 120-20 169-57l-107-106c-18 9-38 14-58 14-33 0-65-13-88-36-49-49-49-128 0-176 23-24 55-37 88-37 33 0 64 13 88 37 23 23 36 54 36 88 0 20-5 40-14 57l107 107c83-109 75-265-25-365z m-156 236c9-9 14-22 14-35 0-14-5-26-14-36-10-9-23-15-36-15-14 0-26 6-36 15-19 20-19 52 0 71 10 10 22 15 36 15 13 0 26-5 36-15z" horiz-adv-x="1000" />

<glyph glyph-name="uploadphoto" unicode="&#xe818;" d="M1359 728h-919v77c0 25-21 45-46 45h-168c-25 0-45-20-45-45v-77h-136c-25 0-45-20-45-45v-788c0-25 20-45 45-45h1314c25 0 46 20 46 45v788c0 25-21 45-46 45z m-1088 33h78v-33h-78v33z m-181-822v699h645c-139-56-238-191-238-349s99-294 238-350h-645z m497 350c0 159 131 288 292 288 161 0 292-129 292-288s-131-289-292-289c-161 0-292 130-292 289z m727-350h-290c139 56 237 192 237 350s-98 293-237 349h290v-699z m-435 555c-25 0-45-20-45-45 0-25 20-45 45-45 65 0 117-52 117-115 0-25 20-45 45-45s46 20 46 45c0 113-93 205-208 205z" horiz-adv-x="1405" />

<glyph glyph-name="check" unicode="&#xe819;" d="M1243 821l-734-729-335 334c-40 39-104 39-143 0s-40-103 0-143l407-404c19-20 45-30 71-30 26 0 52 10 72 30l805 800c39 39 39 103 0 142-40 39-104 39-143 0z" horiz-adv-x="1417" />

<glyph glyph-name="milestonesarrowleft" unicode="&#xe81a;" d="M513-125c-6-7-15-10-23-10s-17 3-24 10l-452 451c0 0 0 0 0 0 0 1 0 1-1 1-13 13-13 34 0 47l452 451c13 13 34 13 47 0 13-13 13-34 0-47l-428-427 429-429c13-13 13-34 0-47z" horiz-adv-x="526" />

<glyph glyph-name="milestonesarrowright" unicode="&#xe81b;" d="M13-78l429 429-428 427c-13 13-13 34 0 47 13 13 34 13 47 0l452-451c13-13 13-34 0-47 0 0-1 0-1-1 0 0 0 0 0 0l-452-451c-6-7-15-10-23-10-9 0-17 3-24 10-13 13-13 34 0 47z" horiz-adv-x="526" />

<glyph glyph-name="replacephoto" unicode="&#xe81c;" d="M309 361c-22 6-45-2-60-18 0 2 0 5 0 7 0 202 167 366 373 366 66 0 130-17 187-49 28-16 65-6 81 22 17 27 7 63-22 79-74 43-159 65-246 65-271 0-492-217-492-483 0-43 6-85 17-126l-55 14c-31 9-64-10-73-41-8-31 11-63 42-72l229-60 62 225c8 31-11 63-43 71z m851 194l-204 118-28-49c-1 0-1-1-2-2l-88-151c-17-28-7-64 21-80 10-5 20-7 30-7 21 0 41 10 52 29l33 57c13-39 21-79 21-120 0-202-167-366-373-366-70 0-138 19-197 55-28 17-64 8-82-19-17-27-8-64 20-81 77-47 167-72 259-72 271 0 492 217 492 483 0 36-5 70-13 104 28-15 64-6 81 22 16 27 7 63-22 79z" horiz-adv-x="1207" />

<glyph glyph-name="star" unicode="&#xe81d;" d="M837-150c-6 0-12 1-18 4l-288 149-287-149c-13-6-29-5-40 3-12 9-18 23-15 37l55 315-233 223c-10 10-14 25-10 39 5 13 17 23 31 25l321 46 144 287c7 13 20 21 34 21 15 0 28-8 34-21l144-287 322-46c14-2 26-12 30-25s1-29-9-38l-233-224 55-315c2-14-4-28-15-37-7-5-15-7-22-7z m-718 583l192-184c9-9 13-21 11-33l-46-260 238 122c11 6 24 6 35 0l237-122-45 260c-2 12 2 24 11 33l192 184-266 38c-12 2-23 9-28 20l-119 237-118-236c-6-11-17-19-29-21l-265-38z" horiz-adv-x="1063" />

<glyph glyph-name="starfilled" unicode="&#xe81e;" d="M837-150c-6 0-12 1-18 4l-288 149-287-149c-13-6-29-5-40 3-12 9-18 23-15 37l55 315-233 223c-10 10-14 25-10 39 5 13 17 23 31 25l321 46 144 287c7 13 20 21 34 21 15 0 28-8 34-21l144-287 322-46c14-2 26-12 30-25s1-29-9-38l-233-224 55-315c2-14-4-28-15-37-7-5-15-7-22-7z m-718 583l192-184c9-9 13-21 11-33l-46-260 238 122c11 6 24 6 35 0l237-122-45 260c-2 12 2 24 11 33l192 184-266 38c-12 2-23 9-28 20l-119 237-118-236c-6-11-17-19-29-21l-265-38z m0 0l192-184c9-9 13-21 11-33l-46-260 238 122c11 6 24 6 35 0l237-122-45 260c-2 12 2 24 11 33l192 184-266 38c-12 2-23 9-28 20l-119 237-118-236c-6-11-17-19-29-21l-265-38z" horiz-adv-x="1063" />

<glyph glyph-name="right-small" unicode="&#xe84a;" d="M328 595q15 15 36 15t37-15l245-245-245-245q-15-15-36-15-22 0-37 15t-15 37 15 37l120 119-395 0q-22 0-37 15t-16 37 16 37 37 16l395 0-120 118q-15 15-15 37t15 37z" horiz-adv-x="646" />
</font>
</defs>
</svg>
